<?xml version="1.0" encoding="utf-8"?>
<!-- Generator: Adobe Illustrator 16.0.0, SVG Export Plug-In . SVG Version: 6.00 Build 0)  -->
<!DOCTYPE svg PUBLIC "-//W3C//DTD SVG 1.1//EN" "http://www.w3.org/Graphics/SVG/1.1/DTD/svg11.dtd">
<svg version="1.1" id="Layer_1" xmlns="http://www.w3.org/2000/svg" xmlns:xlink="http://www.w3.org/1999/xlink" x="0px" y="0px"
	 width="384px" height="256px" viewBox="0 0 384 256" enable-background="new 0 0 384 256" xml:space="preserve">
<rect x="16" y="16" fill="#FFECD0" width="352" height="224"/>
<g>
	<path d="M0,0v256h384V0H0z M368,240H16V16h352V240z M368,240"/>
	<rect x="184" y="40" width="16" height="176"/>
	<path d="M352.609,32H267v96h85.609V32z M336.609,112H283V48h53.609V112z M336.609,112"/>
	<rect x="248.902" y="160" width="95.707" height="16"/>
	<rect x="248.902" y="192" width="95.707" height="16"/>
	<rect x="36.105" y="64" width="108.406" height="16"/>
	<rect x="36.105" y="104" width="108.406" height="16"/>
	<rect x="36.105" y="144" width="62.234" height="16"/>
</g>
</svg>
